<?xml version="1.0" encoding="UTF-8"?>
<svg id="Calque_2" data-name="Calque 2" xmlns="http://www.w3.org/2000/svg" viewBox="0 0 2226.47 346.34">
  <defs>
    <style>
      .cls-1 {
        fill: #fff;
      }

      .cls-2 {
        fill: #68c0ea;
      }
    </style>
  </defs>
  <g id="Calque_1-2" data-name="Calque 1">
    <g>
      <path class="cls-1" d="m1423.8,161.25c.43-1.18.7-1.82.89-2.47,12.33-41.06,24.65-82.13,36.97-123.2.62-2.06,1.23-4.12,1.88-6.17.88-2.78,1.97-3.62,4.89-3.62,9.52,0,19.04.04,28.55.08,2.69.01,3.29.45,4.08,3.1,2.39,8.03,4.75,16.07,7.13,24.1,7.74,26.17,15.5,52.34,23.23,78.51,2.53,8.57,4.98,17.17,7.47,25.75.33,1.14.7,2.27,1.1,3.57,1.09-.67,1.12-1.65,1.35-2.51,2.54-9.3,5.08-18.6,7.6-27.9,8.56-31.69,17.12-63.37,25.67-95.06.62-2.31,1.2-4.62,1.85-6.92.62-2.21,1.13-2.63,3.34-2.63,10.56-.02,21.12-.01,31.67,0,.68,0,1.37.17,2.3.29-.94,3.3-1.8,6.35-2.69,9.4-6.36,21.75-12.71,43.51-19.1,65.25-10.61,36.14-21.25,72.27-31.87,108.41-.09.31-.14.63-.24.93-.77,2.33-1.36,2.8-3.8,2.82-2.4.02-4.8-.06-7.2-.05-6.72.01-13.44.05-20.16.06-2.97,0-3.39-.34-4.27-3.12-11.59-36.96-23.19-73.93-34.79-110.89-2.19-7-4.36-14-6.56-21-.3-.95-.69-1.87-1.49-2.8-.26.72-.56,1.42-.79,2.15-13.28,42.43-26.56,84.86-39.84,127.29-.64,2.06-1.26,4.12-1.95,6.16-.61,1.79-1.07,2.12-2.99,2.13-9.68.04-19.36.06-29.03.07-2.31,0-2.3-.02-2.95-2.22-4.44-15.14-8.88-30.28-13.32-45.42-13.38-45.58-26.76-91.16-40.14-136.73-.22-.75-.38-1.51-.64-2.5,1.12-.1,1.97-.23,2.83-.23,10.64-.03,21.28-.05,31.91-.05,2.39,0,3.1.63,3.83,3.4,2.79,10.57,5.53,21.15,8.33,31.71,6.93,26.14,13.88,52.28,20.82,78.42,1.66,6.24,3.32,12.49,5.01,18.73.24.9.59,1.77,1.06,3.17Z"/>
      <path class="cls-1" d="m1016.19,20.95c16.39.14,35.13,4.47,52.44,14.24,16.64,9.39,28.59,23.07,36.44,40.42,4.35,9.62,7,19.7,8.01,30.17,1.63,16.79.38,33.34-5.27,49.37-4.2,11.91-10.66,22.48-19.2,31.79-13.83,15.09-31.18,23.87-50.92,28.36-10.5,2.39-21.15,3.51-31.9,2.86-22.3-1.34-42.53-8.48-60.16-22.36-15.78-12.42-25.42-28.82-30.66-48-1.79-6.56-2.88-13.23-3.41-20-.27-3.42-.97-6.84-.86-10.24.66-20.24,5.39-39.3,17.05-56.22,12.7-18.43,30.12-30.12,51.61-35.9,10.93-2.94,22.08-4.46,36.81-4.48Zm-1.55,166.38c1.88-.19,5.24-.42,8.55-.91,14.55-2.14,26.97-8.42,36.52-19.71,10.85-12.83,16.42-27.83,16.9-44.58.31-11.02-1.4-21.81-5.65-32.06-6.53-15.78-17.52-27.28-33.31-34.03-13.85-5.91-28.08-6.24-42.51-2.58-14.99,3.81-26.77,12.18-35.17,25.21-8.25,12.8-12.04,26.8-11.56,42.02.24,7.63,1.29,15.11,3.56,22.39,5.67,18.2,17.24,31.26,34.57,39.18,8.44,3.85,17.41,5.21,28.1,5.07Z"/>
      <path class="cls-1" d="m2080.28,26c1.25-.06,2.11-.13,2.97-.13,18.15-.04,36.3-.11,54.46-.07,6.79.01,13.6.06,20.37.51,14.07.94,27.16,4.94,38.7,13.32,9.49,6.9,15.27,16.15,17.47,27.65,1.81,9.46,1.87,18.9-.79,28.21-4.05,14.18-13.09,24.1-26.49,30.07-3.35,1.49-6.86,2.63-10.3,3.92-1.04.39-2.08.76-3.35,1.22,16.53,27.37,32.94,54.56,49.53,82.03-1.06.08-1.75.18-2.44.18-11.67.03-23.35,0-35.02.11-3,.03-4.93-1.18-6.35-3.78-12.74-23.35-25.54-46.68-38.32-70.01-.58-1.05-1.09-2.13-1.68-3.18-.77-1.37-1.98-2.11-3.53-2.11-6.72,0-13.43.05-20.15.1-.22,0-.44.13-.94.28v78.45c-1.04.06-1.81.14-2.59.14-9.44.02-18.87.04-28.31.05-2.64,0-3.22-.58-3.25-3.24,0-.48,0-.96,0-1.44,0-59.62,0-119.25,0-178.87,0-1.02,0-2.05,0-3.42Zm34.07,80.82c1.19,0,2.2.03,3.21,0,9.9-.31,19.8-.65,29.7-.96,6.52-.2,12.88-1.06,18.9-3.79,8.22-3.74,13.61-9.63,14.7-18.87,1.07-9.06-1.58-17.24-10.04-22.41-5.41-3.31-11.3-5.27-17.63-5.66-4.86-.3-9.74-.38-14.61-.48-5.91-.13-11.82-.22-17.74-.23-2.13,0-4.3-.36-6.49.37v52.05Z"/>
      <path class="cls-1" d="m92.8,130.46c16.56,27.49,32.95,54.7,49.53,82.22-1.01.11-1.69.24-2.37.24-12.08.03-24.15.02-36.23.1-2.21.01-3.52-.94-4.55-2.83-11.05-20.28-22.15-40.52-33.23-60.78-2.26-4.14-4.59-8.24-6.75-12.42-1.13-2.2-2.72-3.06-5.18-3.01-5.76.12-11.52.03-17.27.04-.77,0-1.55.08-2.59.14v78.15c-2.05.67-31.41.75-33.78.13V26.07c.76-.07,1.45-.2,2.14-.2,22.63-.01,45.26-.1,67.89.03,12.44.07,24.51,2.21,35.83,7.66,8.34,4.02,15.62,9.34,20.88,17.12,3.82,5.66,6.1,11.91,7.02,18.66.93,6.84,1.15,13.68.08,20.52-2.2,14.11-9.51,24.87-21.53,32.46-5.51,3.48-11.5,5.93-17.83,7.5-.53.13-1.05.33-2.05.64ZM33.99,54.38c-.08.89-.2,1.67-.2,2.44-.01,15.66-.02,31.33,0,46.99,0,2.33.43,2.75,2.83,2.77,1.84.01,3.68-.17,5.51-.11,9.28.29,18.54.14,27.79-.62,6.34-.52,12.49-1.88,18.17-4.9,5.76-3.07,9.9-7.47,11.65-13.9.91-3.35,1.06-6.75.79-10.19-.44-5.69-2.78-10.42-7.19-14.09-4.42-3.69-9.68-5.5-15.21-6.69-6.99-1.5-14.11-1.73-21.22-1.84-6.31-.09-12.63.08-18.94.13-1.26.01-2.51,0-3.98,0Z"/>
      <path class="cls-1" d="m1232.49,130.37c16.6,27.53,33.05,54.8,49.64,82.32-.86.1-1.46.23-2.06.23-12.24.03-24.47.02-36.71.1-2.18.02-3.35-1.03-4.31-2.79-4.97-9.12-10-18.21-14.98-27.33-8.13-14.86-16.29-29.71-24.34-44.61-1.84-3.4-4.38-4.65-8.22-4.4-4.53.29-9.1.05-13.65.03-.56,0-1.12-.1-1.67-.06-1.81.12-2.41.7-2.5,2.52-.07,1.36-.03,2.72-.03,4.08.01,23.26.03,46.53.04,69.79,0,.78,0,1.56,0,2.52-1.13.06-1.99.14-2.85.15-9.2.03-18.4.04-27.59.05-2.79,0-3.23-.45-3.23-3.43,0-27.5.04-55,.04-82.5,0-32.54-.03-65.07-.04-97.61,0-3.63,0-3.59,3.58-3.59,21.92.01,43.83-.08,65.75.04,13.1.07,25.75,2.48,37.65,8.21,9.39,4.52,17.11,10.86,22.12,20.17,3.07,5.7,4.72,11.83,5.39,18.25.51,4.86.56,9.71.03,14.58-1.01,9.31-4.37,17.61-10.2,24.92-7.45,9.34-17.4,14.58-28.76,17.52-.91.23-1.8.49-3.08.83Zm-58.96-49.95c0,7.67,0,15.33,0,23,0,2.8.23,3.04,2.99,3.02,7.11-.04,14.23-.01,21.34-.19,5.26-.13,10.54-.35,15.78-.9,5.94-.62,11.53-2.54,16.61-5.79,4.79-3.06,7.91-7.32,9.41-12.81.81-2.97.85-5.99.73-9.03-.2-5.06-1.9-9.56-5.51-13.15-5.87-5.84-13.08-8.85-21.28-9.2-11.25-.48-22.51-.68-33.77-1-1.12-.03-2.23-.11-3.35-.15-2.31-.06-2.86.45-2.94,2.7-.02.56,0,1.12,0,1.68,0,7.27,0,14.54,0,21.81Z"/>
      <path class="cls-1" d="m148.72,212.99c1.22-2.94,2.17-5.31,3.19-7.64,15.19-34.74,30.4-69.48,45.6-104.23,10.21-23.33,20.41-46.67,30.61-70,.45-1.02.98-2.01,1.42-3.04.65-1.52,1.8-2.09,3.42-2.09,8.16-.02,16.31-.04,24.47-.16,2.07-.03,3.15.76,3.96,2.66,8.06,18.71,16.21,37.39,24.31,56.08,11.12,25.66,22.24,51.32,33.35,76.98,7.01,16.2,14,32.42,20.99,48.63.31.73.58,1.47,1,2.55-.96.08-1.7.19-2.45.19-11.12.03-22.24-.02-33.35.13-2.58.03-3.92-.92-4.85-3.26-4.51-11.26-9.13-22.48-13.71-33.71-.42-1.03-.93-2.04-1.28-3.1-.69-2.06-2.11-2.78-4.21-2.77-7.12.06-14.24.02-21.36.02-13.84,0-27.67,0-41.51,0-3.44,0-6.88,0-10.32,0-3.44,0-3.89.31-5.14,3.49-4.64,11.82-9.28,23.64-13.92,35.46-1.33,3.4-1.9,3.8-5.47,3.8-10.64,0-21.27,0-31.91,0-.77,0-1.54,0-2.83,0Zm95.95-145.05c-.19,0-.38,0-.58,0-9.25,23.9-18.5,47.79-27.75,71.69-.11.29-.15.61-.21.93-.01.07.05.15.08.22.03.07.08.12.13.19h56.08c-9.32-24.52-18.55-48.77-27.77-73.03Z"/>
      <path class="cls-1" d="m650.23,26.05c.06,3.13.17,6.06.15,9-.03,5.43-.16,10.86-.22,16.29-.04,4.05-.11,4.15-4.19,4.15-27.36,0-54.71,0-82.07,0-4.21,0-4.62.04-4.6,4.53.06,12.87.04,25.74.06,38.61,0,.56-.02,1.12.04,1.68.12,1.18.77,1.92,1.98,2.03.87.08,1.75.1,2.63.1,25.44,0,50.87,0,76.31,0,.88,0,1.76-.03,2.64.06,1.69.17,2.24.73,2.29,2.46.06,1.84-.02,3.68-.02,5.51,0,5.84,0,11.67,0,17.51v2.78c-1.51.07-2.77.18-4.03.18-25.92.01-51.83,0-77.75,0-4.14,0-4.12,0-4.1,4.11.04,8.63.04,17.27.09,25.9.04,6.47.14,12.94.24,19.41.01.7.13,1.4.23,2.35,1.11.05,2.12.13,3.13.13,28.88,0,57.75.02,86.63,0,5.97,0,5,.47,5.04,4.94.06,7.35.08,14.71.11,22.06.01,2.44-.62,3.1-3.11,3.13-3.04.03-6.08,0-9.12,0-37.67,0-75.35,0-113.02,0q-4.36,0-4.36-4.42c.01-29.58.04-59.16.04-88.74,0-29.9-.03-59.8-.04-89.7,0-4.24.03-4.27,4.3-4.27,39.03,0,78.07,0,117.1,0,1.1,0,2.2.11,3.63.18Z"/>
      <path class="cls-1" d="m2053.86,25.88v29.41c-.74.07-1.42.2-2.11.2-25.76,0-51.51.01-77.27,0-2.64,0-5.27-.17-7.91-.15-2.75.03-3.36.69-3.36,3.44,0,13.19,0,26.38,0,39.57,0,3.75.44,4.18,4.35,4.18,23.44-.01,46.87-.03,70.31-.04,3.2,0,6.4-.03,9.6.04,1.8.04,2.15.38,2.16,2.13.03,8.31,0,16.63-.01,24.94,0,.31-.11.62-.21,1.18-1.24.06-2.49.17-3.73.17-25.68,0-51.35-.02-77.03-.03-.8,0-1.6-.03-2.4.01-2.26.11-2.92.79-3.03,3.1-.01.32,0,.64,0,.96.01,14.63.03,29.26.04,43.89,0,.48-.03.96.01,1.44.16,1.77.92,2.54,2.73,2.73.48.05.96.03,1.44.03,8.4,0,16.8.02,25.2,0,20.63-.05,41.27-.12,61.9-.17,4.67-.01,4.67,0,4.67,4.55,0,7.51,0,15.03,0,22.54,0,2.61-.32,2.91-2.86,2.97-.48.01-.96,0-1.44,0-40.31,0-80.63,0-120.94,0-4.17,0-4.33-.16-4.33-4.31,0-59.48,0-118.95,0-178.43,0-4.18.16-4.35,4.29-4.35,38.87,0,77.75,0,116.62,0h3.33Z"/>
      <path class="cls-1" d="m486.93,165.71c9.12,6.42,18.05,12.7,27.2,19.15-1.71,1.82-3.26,3.4-4.74,5.05-11.32,12.67-25.3,20.97-41.78,24.9-20.72,4.95-41.38,4.81-61.75-1.88-15.84-5.2-29.85-13.44-41.28-25.74-10.69-11.5-17.41-25.12-21.23-40.25-2.59-10.27-3.87-20.7-3.58-31.29.56-20.48,6.45-39.26,18.41-55.99,9-12.58,20.81-21.77,34.81-28.22,11.28-5.19,23.12-8.47,35.46-9.73,19.44-1.99,38.3.43,56.35,8.14,7.42,3.17,14.08,7.59,19.88,13.19,2.15,2.08,4.35,4.21,5.96,7.08-1.92,1.64-3.68,3.23-5.54,4.71-6.07,4.82-12.17,9.61-18.28,14.38-1.68,1.31-2.27,1.14-3.88-.4-2.64-2.54-5.2-5.23-8.1-7.46-7.68-5.92-16.52-8.95-26.16-9.69-11-.85-21.75.3-31.96,4.65-17.34,7.4-28.68,20.43-34.87,38.06-3.19,9.07-4.27,18.48-4.09,28.05.27,14.36,4.36,27.55,12.36,39.45,9.05,13.47,21.9,21.18,37.73,24.12,8.16,1.51,16.35,1.81,24.55.31,10.98-2.01,20.2-7.31,28.23-14.9,1.97-1.86,4.02-3.64,6.28-5.67Z"/>
      <path class="cls-1" d="m813.17,212.69h-33.18c-.52-1.69-.75-181.46-.25-186.2.05-.06.11-.12.17-.17.06-.05.12-.13.18-.14.47-.06.95-.15,1.42-.15,39.51,0,79.02.01,118.53.03.22,0,.44.14.83.26v29.18c-1.12,0-2.13,0-3.14,0-26.63,0-53.27,0-79.9,0-.96,0-1.92.03-2.88.05-1.18.02-1.73.68-1.8,1.8-.04.72-.06,1.44-.06,2.16,0,5.28,0,10.55,0,15.83,0,8.63,0,17.26,0,25.89,0,.8-.02,1.6.07,2.39.17,1.54.7,2.12,2.27,2.26,1.51.13,3.04.09,4.55.09,24.15-.02,48.31-.05,72.46-.08.48,0,.97-.02,1.44.06,1.15.17,1.92.75,1.96,2.02,0,.08.01.16.01.24,0,7.99.02,15.99-.01,23.98,0,1.63-.51,2.09-2.16,2.26-.79.08-1.6.04-2.4.04-24.63,0-49.27,0-73.9,0-4.19,0-4.32.11-4.31,4.29.05,21.58.11,43.16.18,64.74,0,2.24.05,4.48.05,6.71,0,.78-.09,1.55-.14,2.46Z"/>
      <path class="cls-1" d="m1908.33,55.47c-1.16.05-1.94.12-2.73.12-17.03-.05-34.06-.1-51.09-.16-3-.01-3.6.56-3.6,3.65,0,41,0,82,0,123,0,9.27.05,18.54.07,27.81,0,.86,0,1.72,0,2.51-2.03.52-31.35.63-34.09.16-.05-.65-.14-1.34-.14-2.03,0-50.75.01-101.5.02-152.26,0-2.5-.23-2.76-2.99-2.76-14.55-.01-29.11,0-43.66,0-2.47,0-4.95.02-7.42,0-2.61-.03-3.44-.98-3.42-3.5.04-4.55-.02-9.1-.04-13.64-.01-3.36-.06-6.71-.03-10.07.02-1.7.63-2.27,2.31-2.4.56-.04,1.12-.01,1.68-.01,47.26,0,94.52,0,141.78,0q3.32,0,3.33,3.22c0,7.83,0,15.67,0,23.5v2.88Z"/>
      <path class="cls-1" d="m1874.92,279.5c-.41,1.03-.71,1.65-.9,2.3-5.8,19.59-11.58,39.17-17.37,58.76-.14.46-.3.91-.44,1.37-.45,1.51-1.47,2.2-3.03,2.18-2.4-.02-4.8.02-7.2,0-2.9-.04-3.41-.44-4.22-3.2-4.15-14.06-8.3-28.12-12.44-42.18-3.33-11.31-6.65-22.62-9.97-33.94-.22-.75-.36-1.53-.57-2.42.52-.19.94-.46,1.36-.46,2.8,0,5.59.11,8.39.06,2.08-.04,3.05,1.16,3.57,2.9.86,2.91,1.66,5.83,2.48,8.75,4.51,16.22,9.02,32.43,13.53,48.65.21.76.51,1.49.9,2.61.37-.72.66-1.13.79-1.58,5.67-19.17,11.33-38.35,17-57.53.16-.53.35-1.06.53-1.59.45-1.36,1.39-2.17,2.82-2.2,3.2-.07,6.4-.14,9.59-.05,1.63.04,2.45,1.16,2.91,2.72,1.84,6.28,3.77,12.53,5.64,18.8,3.39,11.39,6.73,22.8,10.14,34.19.66,2.2,1.53,4.33,2.47,6.97.42-.98.69-1.44.82-1.93,5.16-18.82,10.32-37.64,15.47-56.46.15-.54.29-1.08.47-1.61.72-2.15,1.63-2.84,3.87-2.82,3.1.03,6.19.1,9.66.17-.31,1.4-.48,2.55-.81,3.66-3.27,11.18-6.58,22.35-9.85,33.53-3.92,13.4-7.81,26.8-11.73,40.21-.27.92-.57,1.83-.87,2.74-.46,1.39-1.43,2.04-2.9,2.02-2.96-.02-5.92-.06-8.88.02-1.4.04-1.9-.56-2.28-1.84-3.08-10.47-6.25-20.92-9.39-31.37-2.9-9.69-5.78-19.39-8.69-29.08-.19-.65-.47-1.28-.87-2.33Z"/>
      <path class="cls-1" d="m923.17,326.85v-64.57c.68-.1,1.21-.24,1.74-.25,2.4-.02,4.8-.05,7.2,0,1.97.04,2.42.45,2.62,2.33.15,1.35.25,2.7.26,4.06.03,5.44,0,10.87.01,16.31.07,18.62.16,37.24.24,55.87,0,1.03,0,2.06,0,3.27-.82.1-1.43.24-2.03.24-3.52.02-7.04-.05-10.56.03-2.04.05-3.42-.7-4.57-2.42-9.16-13.58-18.39-27.11-27.6-40.66-4.58-6.74-9.16-13.48-13.75-20.22-.33-.48-.74-.91-1.52-1.23v64.2c-.67.13-1.12.29-1.57.3-2.72.02-5.44.05-8.16,0-1.74-.04-2.29-.53-2.57-2.21-.16-.94-.21-1.91-.21-2.86-.01-24.38,0-48.76,0-73.14,0-.32,0-.64,0-.96.1-2.48.56-2.99,2.97-3.04,3.52-.07,7.04-.05,10.55-.1,2.04-.02,3.17,1.26,4.19,2.77,3.25,4.84,6.51,9.68,9.77,14.52,10.35,15.38,20.71,30.75,31.07,46.12.43.64.92,1.23,1.39,1.84.18-.06.36-.12.54-.18Z"/>
      <path class="cls-1" d="m400.98,279.1v2.79c0,19.42,0,38.85,0,58.27,0,3.86-.44,4.21-4.32,3.96-1.59-.1-3.19.04-4.78.05-1.87.01-2.4-.49-2.5-2.38-.03-.56,0-1.12,0-1.68,0-24.7,0-49.4,0-74.1,0-4.02.12-4.14,4.2-4.14,2.56,0,5.12.08,7.68-.02,2.65-.1,4.53.91,6.01,3.14,7.26,10.91,14.61,21.76,21.92,32.63,6.15,9.15,12.3,18.31,18.45,27.45.47.7,1.03,1.33,1.83,1.9.51-7.21.34-14.34.37-21.47.03-7.19,0-14.39,0-21.58s0-14.35,0-21.74c1.14-.12,2.06-.3,2.99-.3,1.92,0,3.84.06,5.75.14,2.02.07,2.73.7,2.8,2.75.11,3.03.12,6.07.13,9.11.09,21.26.16,42.51.24,63.77,0,1.44.02,2.88-.01,4.32-.02.61-.15,1.23-.25,1.98-.83.06-1.53.15-2.23.15-3.44.01-6.88-.06-10.32.03-1.88.05-3.11-.61-4.17-2.18-7.46-11.06-15-22.07-22.52-33.1-6.39-9.37-12.8-18.74-19.2-28.1-.44-.64-.93-1.24-1.4-1.85-.23.06-.45.13-.68.19Z"/>
      <path class="cls-1" d="m1100.04,346.19c-10.82.26-20.48-2.82-28.83-9.84-6.11-5.14-10.28-11.54-12.46-19.19-3.07-10.74-3.32-21.5,1.23-31.86,6.05-13.77,16.18-22.92,31.47-25.14,11.19-1.62,22.07-.29,31.97,5.63,10.61,6.35,16.9,15.89,19.38,27.87.67,3.23.56,6.68.46,10.01-.19,5.68-1.18,11.23-3.11,16.63-5.06,14.17-20.48,26.16-37.47,25.9-.88-.01-1.76,0-2.64,0Zm1.48-10.93c8.36-.18,16.54-3.93,22.46-11.92,6.47-8.74,8.14-18.58,5.62-29.07-2.16-9-7.39-15.82-15.52-20.31-5.45-3.01-11.37-3.65-17.45-2.94-8.21.95-15.13,4.36-20.27,11.01-4.24,5.49-6.26,11.78-6.82,18.61-.11,1.33-.5,2.68-.33,3.97.28,2.21.9,4.37,1.38,6.55,3.51,16.13,16.65,24.08,30.93,24.11Z"/>
      <path class="cls-1" d="m799.05,346.21c-7.89-.09-15.58-1.64-22.56-5.82-8.87-5.32-14.84-13.02-17.92-22.84-3.46-11.04-3.12-22.05,1.36-32.75,4.77-11.39,13.12-19.18,24.87-22.99,11.97-3.88,23.82-3.21,35.24,2.2,10.54,4.99,17.5,13.23,20.99,24.29,3.16,10.02,3.24,20.18-.18,30.12-4.86,14.1-15,22.64-29.31,26.38-4.04,1.05-8.18,1.41-12.5,1.41Zm.19-10.93c12.13-.48,21.45-5.28,27.16-15.93,3.99-7.44,4.81-15.43,3.16-23.7-3.02-15.15-16.42-26.64-32.58-24.73-11.46,1.36-19.92,7.01-24.91,17.44-4.61,9.64-3.95,19.44.26,28.98,5.17,11.71,14.6,17.29,26.91,17.94Z"/>
      <path class="cls-1" d="m195.79,303.93c.08-6.04.56-12.03,2.75-17.68,5.43-13.95,15.62-22.63,30.19-25.77,11.77-2.54,23.17-.79,33.58,5.32,10.66,6.25,17,15.74,19.17,27.92,1.31,7.32,1.07,14.65-.71,21.87-2.45,9.92-8.29,17.53-16.51,23.37-7.34,5.21-15.52,7.66-24.59,7.29-4.97-.2-9.87-.53-14.7-1.83-15.63-4.18-27.02-19.35-28.55-32.63-.3-2.61-.43-5.24-.63-7.87Zm45.87,31.24c8.81-.22,17.68-5.17,23.57-15.14,3.55-6.01,4.85-12.53,4.27-19.53-.74-8.92-3.92-16.57-10.83-22.42-17.32-14.69-42.02-6.21-48.74,13.82-1.87,5.58-1.75,11.29-.99,17.05,2.01,15.24,14.54,26.23,32.73,26.22Z"/>
      <path class="cls-1" d="m485.18,303.05c0-.72,0-1.44,0-2.15,0-11.5,0-22.99,0-34.49,0-.8.05-1.6.11-2.39.11-1.34.93-1.97,2.19-2.1.55-.06,1.12-.04,1.68-.04,9.51,0,19.03-.08,28.54.02,8.77.09,16.88,2.58,24.21,7.39,4.34,2.85,7.89,6.54,10.36,11.12,5.78,10.71,7.46,22.15,4.34,33.85-3.89,14.53-13.56,23.69-28.12,27.67-6.38,1.75-12.89,2.25-19.46,2.33-6.56.07-13.11.02-19.67.01-.48,0-.96.02-1.44-.03-2.08-.18-2.68-.74-2.72-2.85-.07-3.2-.04-6.39-.02-9.59.05-8.71.12-17.41.18-26.12,0-.88,0-1.75,0-2.63-.06,0-.13,0-.19,0Zm11.74-31.03c-.05,1.06-.12,1.84-.11,2.63.03,5.11.07,10.22.12,15.33.12,13.1.24,26.19.36,39.29,0,.48.04.96.07,1.44.16,2.28.3,2.44,2.55,2.46,3.44.03,6.88.09,10.31-.01,4.48-.13,8.93-.52,13.26-1.84,8.21-2.51,14.87-6.99,18.76-14.9,2.71-5.52,3.38-11.37,2.75-17.46-1.32-12.71-10.03-23.14-23.45-25.1-4.5-.65-9.04-1.01-13.58-1.36-3.57-.27-7.17-.32-11.04-.48Z"/>
      <path class="cls-1" d="m1305.61,306.88c7.75,12.41,15.34,24.57,23,36.82-.4.19-.6.37-.79.37-4.24.03-8.47,0-12.71.06-1.54.02-2.26-.91-2.93-2.07-2.97-5.11-5.98-10.2-8.96-15.3-3.06-5.24-6.14-10.47-9.11-15.77-1.07-1.9-2.42-2.75-4.63-2.63-2.69.15-5.4.04-8.36.04v35.04c-1.94.62-8.94.73-11.77.22-.06-.48-.18-1.01-.18-1.54,0-25.57.02-51.13.04-76.7,0-2.77.79-3.55,3.58-3.54,9.91.03,19.82,0,29.73.16,10.02.16,18.02,5.63,21.23,14.41,4.24,11.6-1.81,25.32-13.6,29.35-1.34.46-2.77.66-4.56,1.07Zm-24.31-9.32c6.51,0,12.73.09,18.94-.04,2.76-.06,5.28-1.26,7.57-2.76,4.2-2.76,5.85-8.14,4.32-13.63-1.04-3.75-3.38-6.31-7.07-7.5-1.81-.58-3.71-1.07-5.6-1.17-4.21-.23-8.44-.22-12.66-.25-1.8-.02-3.6.09-5.51.14v25.22Z"/>
      <path class="cls-1" d="m1602.12,306.81c7.75,12.44,15.32,24.6,23.05,37.01-.71.14-1.07.28-1.43.28-3.6.02-7.2-.05-10.79.04-2.26.06-3.67-.88-4.78-2.84-5.5-9.65-11.09-19.24-16.68-28.84-.56-.96-1.13-2-1.95-2.69-.81-.68-1.93-1.29-2.94-1.35-2.94-.18-5.89-.06-9.18-.06-.16,3.13-.06,6.06-.08,8.97-.02,2.96,0,5.91,0,8.87v17.58c-.58.13-1.02.32-1.47.33-2.56.03-5.12.06-7.68,0-1.84-.04-2.43-.62-2.61-2.42-.07-.71-.04-1.44-.04-2.16,0-24.45,0-48.91,0-73.36,0-4.25.03-4.28,4.25-4.28,8,0,15.99-.08,23.99.04,3.42.05,6.9.2,10.24.86,9.1,1.79,14.95,7.34,17.13,16.36,2.27,9.42-1.6,23.5-15.91,26.86-.91.21-1.81.47-3.12.82Zm-13.86-9.05s0-.08,0-.12c2.79-.13,5.58-.2,8.36-.4,1.5-.11,3.04-.28,4.48-.69,6.11-1.74,9.17-8.49,7.53-15.09-1.23-4.96-4.96-8.01-10.65-8.47-6.03-.49-12.1-.61-18.15-.81-2.03-.07-2.62.51-2.64,2.52-.05,6.86-.05,13.72,0,20.58.02,1.99.59,2.45,2.69,2.47,2.79.03,5.59,0,8.38,0Z"/>
      <path class="cls-1" d="m2203.33,306.8c7.78,12.47,15.36,24.63,23.15,37.11-.99.1-1.51.19-2.03.2-3.44.01-6.88-.04-10.32.02-2.22.04-3.64-.85-4.78-2.84-5.65-9.93-11.49-19.76-17.14-29.68-1.34-2.35-2.91-3.56-5.74-3.27-2.44.25-4.94.05-7.69.05-.21,2.46-.09,4.75-.11,7.03-.02,2.4,0,4.8,0,7.19v21.09c-.46.17-.74.37-1.03.37-2.88.03-5.76.07-8.64.02-1.67-.03-1.95-.35-2.07-1.96-.04-.56-.01-1.12-.01-1.68,0-24.86,0-49.72,0-74.57,0-3.97.04-4.01,4.01-4.01,8.24,0,16.47-.03,24.71,0,4.82.02,9.58.56,14.16,2.17,7.48,2.62,11.41,8.07,12.58,15.75.56,3.67.72,7.34-.22,10.94-2.11,8.13-7.66,12.83-15.47,15.19-.98.3-1.99.51-3.38.86Zm-24.78-21.86c0,3.2-.02,6.39,0,9.59.02,2.82.43,3.27,3.17,3.21,5.59-.13,11.18-.31,16.77-.54,1.27-.05,2.56-.24,3.78-.59,4.7-1.34,7.49-4.97,8.01-10.79.4-4.47-.99-8.37-4.93-11-1.85-1.24-3.96-1.77-6.12-1.89-5.9-.32-11.81-.57-17.72-.76-2.44-.08-2.94.46-2.97,2.93-.04,3.28,0,6.55,0,9.83Z"/>
      <path class="cls-1" d="m563.84,344.11c.42-1.23.62-1.98.93-2.68,9.48-21.38,18.97-42.76,28.45-64.14,1.88-4.23,3.84-8.43,5.57-12.72.86-2.14,2.22-2.92,4.41-2.8,1.67.09,3.37.17,5.03-.02,2.53-.28,3.76.89,4.63,3.13,1.59,4.09,3.41,8.1,5.14,12.13,9.17,21.36,18.34,42.72,27.5,64.08.36.84.56,1.76.91,2.89-2.54.09-4.76.21-6.97.24-1.28.02-2.56-.15-3.83-.11-2.12.06-3.48-.91-4.27-2.82-1.76-4.2-3.53-8.38-5.29-12.58-.28-.66-.58-1.32-.8-2-.61-1.89-1.93-2.62-3.84-2.53-1.12.05-2.24,0-3.36,0-9.68,0-19.35,0-29.03,0-2.87,0-3.18.24-4.21,2.91-1.88,4.84-3.82,9.65-5.63,14.52-.65,1.76-1.68,2.53-3.56,2.49-3.74-.08-7.49-.02-11.77-.02Zm41.68-66.01l-.56-.05c-4.85,11.7-9.69,23.4-14.65,35.37h29.65c-4.88-11.94-9.66-23.63-14.44-35.33Z"/>
      <path class="cls-1" d="m0,343.74c.45-1.24.78-2.37,1.25-3.45,4.5-10.22,9.04-20.44,13.55-30.66,6.42-14.53,12.83-29.06,19.25-43.58.42-.94.86-1.89,1.42-2.76.64-.98,1.57-1.54,2.82-1.52,1.51.02,3.03.01,4.53-.08,2.49-.16,4.35.81,5.6,2.95.48.82.93,1.67,1.31,2.55,10.49,24.52,20.98,49.05,31.46,73.57.37.87.69,1.77,1.11,2.86-.66.13-1.17.3-1.67.3-3.44.03-6.88-.04-10.31.04-1.47.03-2.3-.4-2.87-1.86-1.97-5.05-4.09-10.05-6.16-15.06-1.07-2.59-1.38-2.83-4.04-2.83-10.87,0-21.75,0-32.62,0-2.5,0-2.98.37-3.89,2.7-1.75,4.46-3.49,8.92-5.26,13.37-1.53,3.83-1.54,3.83-5.79,3.82-2.96,0-5.91-.03-8.87-.06-.15,0-.3-.11-.81-.31Zm26.28-30.49c2.93.57,27.46.44,29.3-.15-4.75-11.72-9.5-23.43-14.24-35.13-.16,0-.33-.01-.49-.02-4.82,11.69-9.64,23.37-14.57,35.3Z"/>
      <path class="cls-1" d="m1930.89,344.11c1.67-3.78,3.11-7.05,4.56-10.32,9.37-21.09,18.74-42.17,28.11-63.26.91-2.04,1.87-4.05,2.75-6.1.67-1.56,1.86-2.43,3.5-2.5,2.32-.1,4.64-.04,6.96-.03,1.61.01,2.36,1.05,2.93,2.4,3.45,8.08,6.93,16.15,10.41,24.22,7.36,17.1,14.73,34.19,22.09,51.29.56,1.3,1.06,2.61,1.74,4.3-1.73,0-3.06,0-4.39,0-2.4,0-4.8-.09-7.2.03-1.89.09-2.99-.7-3.67-2.4-1.92-4.82-3.91-9.61-5.84-14.42-1.18-2.94-1.37-3.1-4.58-3.1-10.56,0-21.11,0-31.67,0-3.21,0-3.42.14-4.6,3.09-1.86,4.67-3.77,9.33-5.55,14.04-.75,1.99-1.93,2.89-4.13,2.8-3.66-.14-7.33-.04-11.43-.04Zm41.8-66.49c-3.97,8.07-14.34,33.75-14.47,35.76h29.03c-4.86-11.93-9.62-23.63-14.56-35.76Z"/>
      <path class="cls-1" d="m1503.11,272.41v24.31h2.74c10.87,0,21.74,0,32.62,0,.56,0,1.12.02,1.68.08,1,.11,1.65.63,1.66,1.69.02,2.48.03,4.95-.01,7.43-.02,1.14-.76,1.73-1.81,1.89-.71.11-1.43.09-2.15.09-10.07.03-20.15.04-30.22.08-1.42,0-2.84.15-4.18.22-.55,1.87-.7,21.15-.2,24.63,4.7.08,9.47.03,14.23.04,4.8,0,9.59,0,14.39,0h14.32c.57,1.86.65,8.34.16,10.9h-55.34v-81.62c.89-.1,1.73-.27,2.57-.27,15.91-.02,31.82-.01,47.73,0,.48,0,.96,0,1.43.07,1.63.23,1.93.48,1.97,2.1.07,2.7.02,5.4.02,8.36h-41.6Z"/>
      <path class="cls-1" d="m1357.34,332.86h43.29c.16,3.73.08,7.27.07,10.95h-55.34c-.11-1.04-.3-1.96-.3-2.89-.02-14.55-.04-29.09,0-43.64.02-10.47.13-20.93.19-31.4,0-.24,0-.48,0-.72.04-2.97.32-3.28,3.33-3.28,14.24-.01,28.47-.02,42.71,0,2.38,0,4.76.21,7.32.32v10.23h-41.32v23.8c.94.1,1.93.29,2.93.3,10.63.08,21.27.13,31.9.18,3.77.02,3.82.08,3.77,3.94-.02,1.52.05,3.04.02,4.56-.04,1.93-.63,2.53-2.58,2.68-.48.04-.96.01-1.44.01-10.08.02-20.15.04-30.23.08-1.42,0-2.84.15-4.18.22-.53,1.93-.65,21.56-.14,24.65Z"/>
      <path class="cls-1" d="m2147.88,333.01v10.76h-55.5v-81.62c.86-.1,1.7-.27,2.54-.27,15.76-.02,31.51-.02,47.27,0,3.14,0,3.82.81,3.58,3.87-.09,1.11-.07,2.23-.08,3.35-.01,1.02,0,2.04,0,3.37-1.23,0-2.16,0-3.1,0-11.6,0-23.19,0-34.79,0-.56,0-1.12-.01-1.68,0-1.82.06-2.06.28-2.17,2.06-.06.96-.08,1.92-.08,2.88-.02,5.52-.05,11.03-.05,16.55,0,2.35.44,2.82,2.8,2.82,10.72.01,21.43.03,32.15-.04,4.22-.03,4.43.09,4.4,4.36,0,1.36.03,2.72.02,4.08-.02,2.08-.59,2.67-2.74,2.71-2.16.04-4.32.01-6.48.01-8.72,0-17.44,0-26.15,0-.56,0-1.12-.03-1.68.01-1.7.12-2.26.66-2.31,2.38-.05,1.84-.02,3.68-.02,5.52,0,4.8-.02,9.59,0,14.39.01,2.41.38,2.79,2.79,2.81,5.44.03,10.88.01,16.32.01,7.36,0,14.72,0,22.07,0h2.89Z"/>
      <path class="cls-1" d="m1776.32,333.02v10.77h-55.63c-.04-.92-.11-1.7-.11-2.48,0-25.57,0-51.14,0-76.72,0-.48-.13-1.03.06-1.42.25-.49.69-1.02,1.18-1.21.56-.22,1.26-.09,1.9-.09,15.43,0,30.86,0,46.29,0,.4,0,.8-.01,1.2,0,2.41.12,2.96.67,2.97,3.04.02,2.39,0,4.77,0,7.45-1.14.04-2.06.11-2.99.11-11.75,0-23.51,0-35.26,0-.56,0-1.12-.02-1.68,0-1.6.08-1.79.24-1.89,1.8-.07,1.04-.05,2.08-.06,3.12-.06,5.43-.1,10.86-.17,16.3-.03,2.58.43,3.07,3.04,3.07,10.71,0,21.43-.02,32.14-.03.72,0,1.44-.04,2.16.03,1.51.15,2.13.81,2.14,2.34.02,2.16,0,4.31-.06,6.47-.05,1.56-.62,2.13-2.18,2.31-.63.07-1.28.03-1.92.03-10.39,0-20.79,0-31.18,0-.56,0-1.12-.02-1.68,0-1.94.1-2.3.48-2.41,2.48-.01.24,0,.48,0,.72,0,6.23-.01,12.47,0,18.7,0,2.81.38,3.19,3.18,3.19,12.63.01,25.27,0,37.9,0h3.05Z"/>
      <path class="cls-1" d="m354.04,262.03c3.39,0,6.5-.05,9.61.02,1.48.03,1.72.38,1.81,1.93.02.32,0,.64,0,.96.03,15.66.06,31.32.07,46.99,0,3.68-.14,7.34-.99,10.94-2.61,11.05-9.31,18.38-20.14,21.73-8.97,2.78-17.88,2.23-26.45-1.65-9.16-4.14-14.14-11.68-16.29-21.2-.59-2.62-.74-5.38-.75-8.08-.07-15.98-.03-31.96-.03-47.95,0-.48-.02-.96.01-1.44.14-1.86.68-2.38,2.55-2.4,1.67-.02,3.35.02,5.02,0,3.47-.05,4.63,1.03,4.63,4.52.01,14.86.02,29.73,0,44.59,0,3.05.21,6.07,1.06,9,1.45,4.98,4.07,9.21,8.47,12.11,9.73,6.41,23.59,2.19,28.31-8.59,1.58-3.62,2.42-7.43,2.48-11.38.13-7.91.18-15.81.26-23.72.07-8.07.12-16.13.2-24.2,0-.62.1-1.24.17-2.17Z"/>
      <path class="cls-1" d="m1424.52,326.29c2.02,1.77,3.72,3.48,5.64,4.89,7.62,5.61,17.91,5.1,24.5-1.11,5.44-5.13,4.57-12.93-2-16.46-2.8-1.5-5.87-2.51-8.82-3.73-4.87-2.02-9.82-3.88-14.6-6.09-6.73-3.1-10.13-8.69-11.33-15.86-.56-3.3-.4-6.52.29-9.74.97-4.53,3.3-8.2,6.81-11.26,5.48-4.77,11.73-7.28,19.02-7.34,4.41-.03,8.79.09,13.07,1.29,4.4,1.23,8.26,3.41,11.52,6.62,1.67,1.65,1.68,2.4-.05,3.94-2.66,2.38-5.38,4.7-8.09,7.08-4.36-5.9-10.12-8.22-17.07-7.52-4.27.43-8.07,2.04-10.69,5.66-3.71,5.13-2.52,11.6,2.78,15.07,3.92,2.57,8.41,3.88,12.76,5.47,2.85,1.04,5.81,1.82,8.63,2.93,7.66,3.01,12.61,8.46,13.72,16.73,1.31,9.73-1.18,18.09-10.72,24.36-6.12,4.02-12.95,5.34-20.15,4.92-4.15-.24-8.26-.85-12.24-2.18-4.28-1.44-7.83-3.94-10.95-7.13-1.53-1.57-1.54-2.35.08-3.79,2.56-2.28,5.21-4.46,7.89-6.74Z"/>
      <path class="cls-1" d="m1209.06,308.51v35.24c-.64.15-1.08.34-1.53.35-2.72.03-5.44.06-8.15,0-2.19-.04-2.64-.5-2.85-2.67-.08-.79-.06-1.6-.06-2.39,0-24.29,0-48.59,0-72.88,0-4.26.02-4.28,4.25-4.28,9.67,0,19.35-.04,29.02.01,8.49.05,15.09,3.66,19.69,10.8,2.64,4.11,3.45,8.67,3.12,13.51-.24,3.63-.88,7.15-2.57,10.38-3.02,5.81-8.11,8.84-14.28,10.34-4.22,1.02-8.53,1.29-12.84,1.38-3.84.08-7.67.06-11.51.1-.63,0-1.27.06-2.28.12Zm-.49-23.75h0c0,3.59-.04,7.19.02,10.78.03,1.85.45,2.29,2.3,2.28,4.95,0,9.91.05,14.85-.21,2.36-.12,4.76-.67,7-1.45,3.82-1.33,6.22-4.18,6.96-8.16.55-2.93.34-5.89-.81-8.7-1.72-4.2-5.16-6-9.4-6.31-6.13-.46-12.27-.7-18.41-.97-2.21-.1-2.48.22-2.5,2.44-.03,3.43,0,6.87,0,10.3Z"/>
      <path class="cls-1" d="m1630.36,262.04c4.5,0,8.49-.04,12.47.02,1.45.02,1.96,1.24,2.38,2.37,1.07,2.84,2.1,5.69,3.14,8.54,6.24,17.1,12.48,34.2,18.73,51.3.23.64.55,1.26,1.02,2.33,1.03-2.56,1.93-4.66,2.73-6.79,6.85-18.13,13.68-36.27,20.53-54.4,1.32-3.48,1.6-3.63,5.23-3.56,2.24.05,4.48.01,6.72.02.78,0,1.56,0,2.68,0-.54,1.7-.89,3.07-1.41,4.38-9.9,24.94-19.83,49.87-29.7,74.82-.81,2.05-1.95,3.18-4.23,3.08-1.99-.08-3.99-.07-5.98-.02-2.1.05-3.16-1.07-3.87-2.91-2.42-6.34-4.92-12.64-7.37-18.96-7.39-19.12-14.77-38.25-22.15-57.38-.31-.79-.53-1.62-.92-2.84Z"/>
      <path class="cls-1" d="m130.47,261.87c.87,0,1.65,0,2.43,0,13.99,0,27.98,0,41.97,0,1.76,0,3.51.09,5.27.15.93.03,1.91.23,1.94,1.35.08,2.93.03,5.86.03,9.1h-39.79c-.08.84-.17,1.38-.18,1.92-.11,6.63-.22,13.25-.32,19.88-.05,3.15.27,3.48,3.36,3.48,10.07,0,20.15,0,30.22,0,.64,0,1.28-.03,1.92.01,1.85.11,2.38.65,2.41,2.52.03,2.16.05,4.31,0,6.47-.04,1.52-.5,1.95-2.02,2.09-.63.06-1.28.02-1.92.02-10.31,0-20.63,0-30.94,0h-2.87v34.54c-1.91.65-8.59.77-11.35.29-.45-1.74-.62-77.39-.14-81.82Z"/>
      <path class="cls-1" d="m1048.83,272.5h-26.41c-.08,1.23-.21,2.23-.21,3.23-.01,21.25,0,42.5,0,63.76,0,.8.03,1.6-.04,2.4-.15,1.65-.84,2.32-2.44,2.3-2.15-.02-4.31-.09-6.46-.2-1.62-.09-2.09-.51-2.36-2.13-.18-1.09-.32-2.21-.32-3.32-.02-19.65-.01-39.31-.01-58.96,0-1.66.16-3.33-.03-4.97-.18-1.59-.79-2.06-2.34-2.15-1.27-.08-2.55.07-3.83.07-5.68.01-11.35,0-17.03,0-.56,0-1.12-.03-1.67-.08-1.06-.1-1.56-.73-1.57-1.76-.02-2.32,0-4.63-.01-6.95,0-1.25.63-1.95,1.82-2.13.71-.11,1.43-.15,2.14-.15,15.35,0,30.7,0,46.04,0,3.59,0,7.18,0,10.76,0,.72,0,1.44.03,2.14.14,1.19.18,1.83.91,1.83,2.14,0,2.79,0,5.58,0,8.78Z"/>
      <path class="cls-1" d="m2050.16,343.83h-11.92c-.31-5.96-.1-11.83-.14-17.7-.04-5.91,0-11.83,0-17.74v-35.75h-2.83c-6.55,0-13.1,0-19.65,0-.64,0-1.28.03-1.92-.04-1.54-.17-2-.6-2.03-2.1-.05-2.32-.05-4.64,0-6.95.03-1.51.51-1.98,2-2.14.63-.07,1.28-.03,1.92-.03,19.11,0,38.22,0,57.33,0h2.94v11.03h-25.69v71.4Z"/>
      <path class="cls-1" d="m709.11,272.57h-26.2c-.1.77-.25,1.38-.25,1.98,0,21.34.03,42.67.04,64.01,0,1.12.05,2.25-.07,3.35-.16,1.4-.82,2.19-2.09,2.21-3.01.04-6.03-.08-9.38-.15v-2.97c0-20.78,0-41.56,0-62.34,0-.56,0-1.12,0-1.68,0-4.1-.58-4.63-4.75-4.58-6.47.08-12.95.12-19.42.17-.79,0-1.58,0-2.45,0-.16-.6-.37-1.04-.37-1.48-.02-2.48-.06-4.96.03-7.43.06-1.66.56-2.09,2.19-2.23.56-.05,1.12-.02,1.68-.02,18.95,0,37.9,0,56.85,0,.4,0,.8-.01,1.2,0,2.56.1,3,.56,3.01,3.17.01,2.54,0,5.09,0,7.97Z"/>
      <path class="cls-1" d="m736.55,303.29v35.95c0,.56,0,1.12,0,1.68-.04,3.03-.44,3.36-3.56,3.23-1.67-.07-3.35,0-5.03.05-2.36.07-3.04-.55-3.04-2.86,0-25.17,0-50.33,0-75.5,0-.56-.04-1.12.03-1.68.19-1.56.93-2.27,2.53-2.28,2.08,0,4.16.03,6.23.16,1.93.13,2.67.95,2.81,2.88.05.72.03,1.44.03,2.16,0,12.06,0,24.13,0,36.19Z"/>
    </g>
    <path class="cls-2" d="m1757.83,130.48c-5.49-13.82-12.94-26.65-20.3-39.51-6.47-11.36-13.42-22.44-19.79-33.87-9.06-16.14-16.85-32.89-22.06-50.73-.58-2.03-1.18-4.07-1.86-6.37-.24.03-.49.04-.74.05-.6,2.16-1.02,4.09-1.67,5.94-7.27,20.28-16.79,39.51-27.59,58.15-10.26,17.7-21.38,34.95-29.95,53.63-6.59,14.38-10.9,29.21-10.56,45.27.24,12.06,3.39,23.18,10.34,32.85,16.23,22.58,38.57,33.01,66.3,30.89,18.45-1.42,34.42-8.74,47.12-22.58,11.38-12.4,16.47-27.29,16.75-43.77.18-10.3-2.16-20.34-5.99-29.95Z"/>
  </g>
</svg>